<?xml version="1.0" encoding="UTF-8"?>
<svg xmlns="http://www.w3.org/2000/svg" xmlns:xlink="http://www.w3.org/1999/xlink" width="300px" height="219px" viewBox="0 0 300 219" version="1.1">
<g id="surface1">
<path style="fill-rule:nonzero;fill:rgb(53.72549%,70.588235%,98.039216%);fill-opacity:1;stroke-width:1.497;stroke-linecap:butt;stroke-linejoin:miter;stroke:rgb(53.72549%,70.588235%,98.039216%);stroke-opacity:1;stroke-miterlimit:4;" d="M 94.017782 59.922195 C 87.638384 69.482835 78.092438 78.99213 71.908538 88.08552 C 69.52398 91.448689 66.666113 97.68467 72.826862 98.133948 C 75.32203 98.236641 78.092438 97.219988 80.747091 96.226442 C 84.361226 94.87604 88.042241 93.345926 90.817794 91.833784 C 111.787493 80.404147 127.450459 70.525161 146.424024 60.956819 C 147.069681 60.633338 147.43238 61.213549 146.966787 61.706472 C 121.984241 75.911365 95.954753 98.724428 71.563844 105.530351 C 63.800528 107.407051 62.424328 102.755096 65.338786 96.164826 C 72.03201 83.192239 81.737441 72.57387 90.545126 62.471528 C 91.538049 61.326511 94.766333 58.962024 94.017782 59.922195 Z M 94.017782 59.922195 " transform="matrix(1.51856,0,0,1.521538,-6.959161,-89.693413)"/>
<path style="fill-rule:nonzero;fill:rgb(0%,0%,0%);fill-opacity:1;stroke-width:0.264583;stroke-linecap:butt;stroke-linejoin:miter;stroke:rgb(90.980392%,76.078431%,61.176471%);stroke-opacity:1;stroke-miterlimit:4;" d="M 59.370962 105.265919 C 59.370962 105.276188 59.363245 105.286458 59.352956 105.286458 C 59.342667 105.286458 59.332377 105.276188 59.332377 105.265919 C 59.332377 105.25565 59.342667 105.247948 59.352956 105.247948 C 59.363245 105.247948 59.370962 105.25565 59.370962 105.265919 Z M 59.370962 105.265919 " transform="matrix(1.51856,0,0,1.521538,-6.959161,-89.693413)"/>
<path style="fill-rule:nonzero;fill:rgb(90.196078%,27.058824%,32.54902%);fill-opacity:1;stroke-width:1.497;stroke-linecap:butt;stroke-linejoin:miter;stroke:rgb(95.294118%,54.509804%,65.882353%);stroke-opacity:1;stroke-miterlimit:4;" d="M 58.185115 105.384015 C 40.518297 121.445069 10.75892 142.276174 5.395595 162.85825 C 5.074053 164.894123 5.889484 166.352351 7.296553 167.338196 C 8.479828 168.167435 10.018086 168.344579 11.263098 168.208512 C 13.156339 168.00056 14.967264 167.294552 16.760184 166.431938 C 23.759516 163.055933 30.517047 158.468161 36.456576 154.437493 C 37.554964 153.68784 38.735667 153.048582 39.769747 152.211641 C 44.420534 148.442838 51.188355 144.789565 53.727253 139.313505 C 54.324035 138.027286 52.906677 138.319958 52.129831 138.907871 C 50.316333 140.278811 48.513124 141.662588 46.66104 142.979615 C 38.717661 148.435136 30.03602 154.011321 21.845696 157.970104 C 19.412264 159.130525 16.929958 160.406475 14.259872 160.7736 C 5.781446 159.497649 17.601339 146.535331 19.862424 143.921816 C 31.270742 130.502518 45.025034 117.24496 55.731104 109.01675 C 56.71631 108.261963 58.949099 106.888455 59.836556 105.463601 C 60.353595 104.631795 58.841061 104.788401 58.185115 105.384015 Z M 58.185115 105.384015 " transform="matrix(1.51856,0,0,1.521538,-6.959161,-89.693413)"/>
<path style="fill-rule:nonzero;fill:rgb(89.019608%,76.470588%,63.137255%);fill-opacity:1;stroke-width:0.397;stroke-linecap:butt;stroke-linejoin:miter;stroke:rgb(90.980392%,76.078431%,61.176471%);stroke-opacity:1;stroke-miterlimit:4;" d="M 30.282965 177.802527 C 29.917693 178.3622 29.68361 178.405844 29.236023 178.405844 C 28.875896 178.405844 28.111911 177.995075 28.623807 177.235153 C 32.019293 172.198103 35.996127 167.64884 39.92666 163.120115 C 42.493853 160.165149 44.618604 157.613248 47.064898 154.827723 C 48.664892 153.007505 50.44495 151.292546 52.22758 150.121855 C 52.963269 149.636635 53.848153 149.274645 54.635288 149.30802 C 57.063575 149.485164 49.233378 157.318008 48.788364 157.669729 C 48.183865 158.147248 47.664252 158.765968 47.059753 159.284563 C 41.590962 164.835075 36.101593 169.392039 31.661738 175.687069 C 31.178138 176.377673 30.282965 177.802527 30.282965 177.802527 Z M 30.282965 177.802527 " transform="matrix(1.51856,0,0,1.521538,-6.959161,-89.693413)"/>
<path style="fill-rule:nonzero;fill:rgb(89.019608%,76.470588%,63.137255%);fill-opacity:1;stroke-width:0.397;stroke-linecap:butt;stroke-linejoin:miter;stroke:rgb(90.980392%,76.078431%,61.176471%);stroke-opacity:1;stroke-miterlimit:4;" d="M 131.460734 108.906356 C 138.953954 103.653652 144.147505 107.676618 142.871625 116.053731 C 141.917288 122.32052 136.651712 126.859513 133.050439 131.303517 C 131.990635 132.612842 133.660083 133.049283 134.544967 132.330438 C 143.71278 124.892958 151.501819 115.6635 150.411148 104.505997 C 150.218222 102.539442 150.251663 99.153168 145.703769 99.091553 C 140.232406 99.017101 133.636932 104.536805 129.708972 108.716376 C 128.94756 109.527644 130.485818 109.591826 131.460734 108.906356 Z M 131.460734 108.906356 " transform="matrix(1.51856,0,0,1.521538,-6.959161,-89.693413)"/>
<path style="fill-rule:nonzero;fill:rgb(100%,43.921569%,54.117647%);fill-opacity:1;stroke-width:0.813818;stroke-linecap:butt;stroke-linejoin:miter;stroke:rgb(95.294118%,54.509804%,65.882353%);stroke-opacity:1;stroke-miterlimit:4;" d="M 108.758079 671.864012 C 108.758079 669.923373 122.826134 650.342322 131.29419 640.503281 C 138.352524 632.294377 164.116413 602.321203 172.63308 592.41424 C 186.953913 575.744148 197.278913 566.778394 203.656691 565.507276 C 213.203913 563.595746 204.949747 573.939353 166.070579 612.635701 C 135.115024 643.433647 122.359468 657.668236 115.417801 669.195633 C 113.00669 673.19335 108.758079 674.901113 108.758079 671.864012 Z M 108.758079 671.864012 " transform="matrix(0.401786,0,0,0.402574,-6.959161,-89.693413)"/>
<path style="fill-rule:nonzero;fill:rgb(100%,43.921569%,54.117647%);fill-opacity:1;stroke-width:0.143622;stroke-linecap:butt;stroke-linejoin:miter;stroke:rgb(95.294118%,54.509804%,65.882353%);stroke-opacity:1;stroke-miterlimit:4;" d="M 109.06919 674.600314 C 106.949745 673.688213 106.35669 671.718464 107.58169 669.680793 C 109.458079 666.57577 117.605301 655.455907 123.030301 648.60545 C 129.213635 640.794377 134.483079 634.516409 147.423357 619.55408 C 152.109468 614.139696 159.333079 605.746432 163.465024 600.904536 C 178.096969 583.788098 181.966413 579.499285 186.740024 575.11344 C 195.130302 567.399399 200.642802 564.051796 205.484469 563.692778 C 207.234469 563.566636 208.099747 563.925655 208.634469 564.9736 C 209.130302 565.94392 208.926136 567.020974 207.817802 569.320632 C 205.921969 573.221317 201.196969 579.256705 193.574746 587.504422 C 190.842802 590.463897 186.730302 594.548943 179.652524 601.34118 C 172.798357 607.919948 156.912246 623.386843 150.933079 629.305793 C 134.648357 645.403395 125.16919 656.581478 116.817801 669.506136 C 114.377523 673.280679 113.765023 674.027825 112.646968 674.542094 C 111.703912 674.978738 110.012245 675.007848 109.06919 674.600314 Z M 111.480301 673.542665 C 112.996968 672.97988 114.853912 671.09746 116.409468 668.555222 C 121.328912 660.540382 129.98169 650.2744 144.885857 634.817208 C 147.549746 632.051797 158.85669 620.621432 170.00808 609.41424 C 181.159469 598.197345 191.834469 587.329765 193.710858 585.262984 C 206.641413 571.038098 209.694191 566.283531 206.699747 565.031819 C 205.863636 564.682504 204.259469 564.779536 202.567802 565.284102 C 196.52058 567.079194 187.090024 575.191066 174.869191 589.124856 C 167.003913 598.080906 129.388635 641.968464 126.753912 645.248144 C 121.017801 652.409103 113.415023 662.888556 110.090023 668.225314 C 108.583079 670.651113 108.301134 671.233304 108.301134 671.902825 C 108.301134 672.785816 108.699745 673.494149 109.33169 673.756136 C 109.973357 674.008419 110.323357 673.979309 111.480301 673.542665 Z M 111.480301 673.542665 " transform="matrix(0.401786,0,0,0.402574,-6.959161,-89.693413)"/>
<path style="fill-rule:nonzero;fill:rgb(100%,43.921569%,54.117647%);fill-opacity:1;stroke-width:0.039245;stroke-linecap:butt;stroke-linejoin:miter;stroke:rgb(95.294118%,54.509804%,65.882353%);stroke-opacity:1;stroke-miterlimit:4;" d="M 35.520578 632.57577 C 30.7178 631.624856 26.469189 628.53924 24.466411 624.580336 C 22.706689 621.087185 22.696967 617.846318 24.4178 612.218464 C 29.6678 595.082619 39.312245 577.393691 54.0803 557.841751 C 70.3553 536.290951 93.280301 512.498713 126.151135 483.039809 C 128.960857 480.516978 131.352523 478.4599 131.459468 478.4599 C 131.576135 478.4599 128.601135 481.564923 124.858079 485.368576 C 104.655301 505.803508 83.110856 529.479307 64.6678 551.52497 C 54.721967 563.421089 48.188634 572.842892 43.988633 581.342892 C 41.013633 587.368577 39.477522 592.588897 39.487245 596.615724 C 39.506689 601.253852 41.538633 605.212756 45.145578 607.599742 C 47.683078 609.288098 52.738634 610.850313 54.653911 610.539811 C 63.141412 609.181363 70.0928 606.503281 87.301134 597.993578 C 107.678912 587.911956 129.952523 574.812641 157.096968 556.949056 C 172.176135 547.03239 180.488635 541.210472 192.631691 532.060358 C 196.238635 529.353166 199.23308 527.17965 199.291413 527.237869 C 199.456691 527.412526 196.773358 531.711042 195.110858 533.933074 C 188.917802 542.200198 181.927524 548.322915 162.998357 562.072344 C 158.565024 565.293805 152.965024 569.456477 150.563635 571.329194 C 148.152524 573.192207 145.021968 575.472459 143.592801 576.394262 C 142.163635 577.316066 135.649746 581.643691 129.116412 586.019833 C 98.598356 606.425655 84.39419 615.080907 66.806689 623.959331 C 56.802523 629.014697 51.328911 631.139697 45.4178 632.284674 C 42.365022 632.866866 37.708078 633.012414 35.520578 632.57577 Z M 35.520578 632.57577 " transform="matrix(0.401786,0,0,0.402574,-6.959161,-89.693413)"/>
<path style="fill-rule:nonzero;fill:rgb(100%,43.921569%,54.117647%);fill-opacity:1;stroke-width:0.039245;stroke-linecap:butt;stroke-linejoin:miter;stroke:rgb(95.294118%,54.509804%,65.882353%);stroke-opacity:1;stroke-miterlimit:4;" d="M 34.937244 638.184217 C 28.131689 636.951911 22.463633 632.983304 19.585855 627.442779 C 18.001133 624.395975 17.534466 622.37771 17.534466 618.64198 C 17.534466 615.740724 17.621966 615.216751 18.681689 611.675085 C 28.345578 579.596317 51.883078 546.236728 93.280301 505.939353 C 113.803912 485.960471 127.385857 473.918804 170.921968 437.066064 C 195.927524 415.903393 205.727524 407.451908 215.459469 398.680219 C 219.396969 395.128849 221.321969 394.042091 224.053914 393.828621 C 225.48308 393.712182 226.017802 393.789808 227.05808 394.294374 C 229.440025 395.449054 229.819191 397.787525 228.078914 400.47531 C 226.037247 403.619146 223.071969 406.306931 215.731691 411.663096 C 210.306691 415.622 202.82058 421.531247 194.828913 428.177936 C 159.916413 457.219603 119.277523 497.293805 85.609467 535.89312 C 65.990023 558.375426 61.401134 564.03239 54.8678 573.832618 C 46.127522 586.92223 43.181689 596.935929 46.701134 601.554651 C 47.508078 602.612299 49.996967 603.970747 52.194189 604.533532 C 53.720578 604.941066 54.002523 604.931363 56.559467 604.40739 C 62.149745 603.28182 67.584467 601.195632 78.871967 595.829765 C 102.341412 584.690495 128.134468 569.504993 161.083079 547.45933 C 174.849746 538.250997 176.92058 536.785814 188.110858 528.36344 C 192.680302 524.928508 197.113635 521.794376 197.949747 521.396545 C 199.962247 520.455335 203.413636 520.368006 204.590024 521.23159 C 205.62058 521.98844 206.165024 523.249855 206.165024 524.870289 C 206.165024 527.305791 202.596969 533.680791 198.056691 539.347458 C 191.912246 547.012983 184.649746 553.300655 167.810857 565.546089 C 162.687246 569.272116 156.474746 573.890838 154.015024 575.81207 C 151.545579 577.7236 147.578913 580.556933 145.196968 582.090039 C 142.805301 583.632847 137.137246 587.40739 132.596968 590.463897 C 109.001134 606.367436 94.203912 615.633989 79.513634 623.697345 C 73.971967 626.744149 63.131689 632.177939 59.583078 633.691637 C 49.919189 637.796089 41.363633 639.358304 34.937244 638.184217 Z M 47.138634 632.207048 C 52.796967 630.858304 56.958078 629.199057 65.990023 624.677368 C 82.867801 616.24529 96.935856 607.793806 122.378912 590.803509 C 129.71919 585.903395 138.265024 580.227025 141.366413 578.17965 C 144.467801 576.141979 148.823357 573.056363 151.049746 571.31949 C 153.266413 569.592321 159.235857 565.148257 164.310857 561.461043 C 178.213635 551.360015 183.609469 546.945061 189.569191 540.793234 C 193.176135 537.067207 196.685858 532.603737 198.494191 529.430791 C 199.923358 526.917663 200.117802 526.413097 199.534469 526.636271 C 199.291413 526.723599 195.606691 529.430791 191.35808 532.632846 C 179.506691 541.56949 173.090024 546.052367 157.349746 556.425084 C 127.628912 576.015838 103.401134 590.095176 81.263634 600.64255 C 70.6178 605.717322 65.416412 607.784103 59.709467 609.220176 C 54.527523 610.520404 53.127522 610.559217 49.734467 609.443349 C 44.2803 607.667664 40.8678 604.048372 40.012245 599.128852 C 38.271967 589.07634 47.488634 572.027824 66.971967 549.215609 C 90.616412 521.551796 109.477523 501.019832 130.671968 479.876567 C 134.648357 475.90796 137.846968 472.618576 137.788635 472.560357 C 137.662246 472.443918 127.171968 481.661955 119.005301 489.0849 C 108.534468 498.594033 100.853912 505.90054 91.802523 514.943919 C 70.870578 535.873714 56.559467 552.757276 44.815022 570.417093 C 35.821967 583.933646 29.920578 595.393121 25.652522 607.638555 C 22.862244 615.624286 22.356689 618.671089 23.231689 622.047802 C 24.563633 627.161386 29.210856 631.411386 34.869189 632.701911 C 37.5428 633.322916 43.483078 633.080336 47.138634 632.207048 Z M 47.138634 632.207048 " transform="matrix(0.401786,0,0,0.402574,-6.959161,-89.693413)"/>
<path style="fill-rule:nonzero;fill:rgb(100%,43.921569%,54.117647%);fill-opacity:1;stroke-width:0.0034688;stroke-linecap:butt;stroke-linejoin:miter;stroke:rgb(95.294118%,54.509804%,65.882353%);stroke-opacity:1;stroke-miterlimit:4;" d="M 173.478913 605.921089 C 173.469191 605.83376 173.498357 605.804651 174.840024 604.446203 C 182.199746 597.042664 191.134469 587.931363 193.351135 585.563783 C 194.624747 584.205335 199.971969 578.17965 199.913635 578.17965 C 199.903913 578.17965 199.777524 578.315495 199.641413 578.480449 C 196.015024 582.614011 189.646969 589.386842 183.210857 595.946203 C 180.255302 598.944491 178.116413 601.118007 176.531691 602.719034 C 175.491413 603.766979 174.38308 604.882847 174.062246 605.212756 L 173.478913 605.804651 L 173.478913 604.669377 L 174.90808 603.2236 C 176.473357 601.661386 178.116413 599.992436 179.351135 598.73102 C 179.798357 598.294377 180.469191 597.595746 180.867802 597.197915 C 181.256691 596.800084 182.053913 595.985016 182.637246 595.393121 C 183.22058 594.791523 183.92058 594.083189 184.18308 593.8115 C 185.466413 592.501568 187.819191 590.066066 189.413635 588.387413 C 196.530302 580.925655 201.206691 575.666522 203.880302 572.086043 L 204.13308 571.746431 L 204.142802 572.493577 L 204.142802 573.23102 L 203.890024 573.560929 C 201.867802 576.161385 198.863635 579.654536 194.605302 584.360586 C 193.390024 585.709331 192.388635 586.776682 190.803913 588.397116 C 190.590024 588.62029 190.016413 589.202482 189.530302 589.707048 C 189.053913 590.201911 188.412246 590.861728 188.110858 591.162527 C 186.924746 592.375427 186.428913 592.879993 185.874746 593.442778 C 185.553913 593.772687 184.659469 594.675084 183.891413 595.461043 C 183.123357 596.247002 182.112246 597.275541 181.64558 597.741294 C 181.178913 598.216751 180.381691 599.022116 179.876135 599.546089 C 178.563635 600.865724 176.949746 602.505564 175.52058 603.941637 C 174.849746 604.620861 174.12058 605.358304 173.887246 605.59118 L 173.478913 606.018121 Z M 199.991413 578.102025 C 200.02058 578.063212 200.040024 578.034102 200.040024 578.034102 C 200.030302 578.034102 200.001135 578.063212 199.971969 578.102025 C 199.93308 578.131134 199.913635 578.160244 199.923358 578.160244 C 199.93308 578.160244 199.962247 578.131134 199.991413 578.102025 Z M 200.146969 577.917664 C 200.176135 577.888554 200.185858 577.869148 200.185858 577.869148 C 200.176135 577.869148 200.146969 577.888554 200.127524 577.917664 C 200.098358 577.946774 200.088635 577.96618 200.098358 577.96618 C 200.098358 577.96618 200.127524 577.946774 200.146969 577.917664 Z M 200.146969 577.917664 " transform="matrix(0.401786,0,0,0.402574,-6.959161,-89.693413)"/>
<path style="fill-rule:nonzero;fill:rgb(100%,43.921569%,54.117647%);fill-opacity:1;stroke-width:0.00693761;stroke-linecap:butt;stroke-linejoin:miter;stroke:rgb(95.294118%,54.509804%,65.882353%);stroke-opacity:1;stroke-miterlimit:4;" d="M 154.695579 613.276112 L 154.695579 612.69392 L 163.396968 602.563783 C 168.190024 596.994148 172.448357 592.035815 172.876135 591.540952 C 173.303913 591.055792 173.624746 590.667664 173.585857 590.687071 C 173.478913 590.754993 161.433079 604.717893 156.05669 611.005564 C 154.637246 612.655107 154.695579 612.596888 154.695579 612.499856 C 154.695579 612.45134 155.317802 611.694491 156.085857 610.8115 C 174.946968 588.853166 177.328913 586.136271 181.752524 581.51755 C 185.84558 577.228737 189.753913 573.560929 193.010858 570.941066 C 197.473358 567.360586 200.905302 565.468463 203.919191 564.915381 C 204.599747 564.789239 205.912247 564.76013 206.330302 564.866865 C 207.885858 565.254993 208.196969 566.438783 207.273358 568.437641 C 206.826136 569.407961 205.873358 570.89255 204.765024 572.386842 L 204.162247 573.201911 L 204.162247 571.736728 L 204.48308 571.290381 C 205.805302 569.456477 206.651136 567.913668 206.84558 566.953052 C 206.962247 566.351454 206.855302 566.031248 206.446969 565.837184 C 206.223358 565.730449 206.165024 565.720746 205.367802 565.720746 C 204.609469 565.720746 204.444191 565.740152 203.792802 565.875997 C 202.956691 566.050655 202.256691 566.273828 201.440024 566.61344 C 195.878913 568.951911 188.013635 575.782961 177.737246 587.19392 C 175.802524 589.328623 174.55808 590.764696 170.173357 595.858874 C 169.356691 596.819491 168.160857 598.207048 167.519191 598.954194 C 166.877524 599.70134 165.623357 601.166523 164.719191 602.214468 C 163.815024 603.262413 162.755302 604.504422 162.346968 604.970176 C 161.948357 605.435929 160.694191 606.901112 159.546968 608.23045 C 155.803913 612.596888 155.065024 613.441066 154.880302 613.654537 L 154.695579 613.868007 Z M 173.799746 590.463897 L 173.94558 590.308646 L 173.790024 590.444491 C 173.644191 590.580335 173.605302 590.619148 173.644191 590.619148 C 173.653913 590.619148 173.721968 590.551226 173.799746 590.463897 Z M 174.110857 590.114582 C 174.20808 590.01755 174.266413 589.939924 174.256691 589.939924 C 174.237246 589.939924 174.159468 590.01755 174.062246 590.114582 C 173.974746 590.201911 173.916413 590.279536 173.926135 590.279536 C 173.935857 590.279536 174.023357 590.201911 174.110857 590.114582 Z M 174.451135 589.726454 C 174.538635 589.629422 174.606691 589.5615 174.587246 589.5615 C 174.577524 589.5615 174.490024 589.629422 174.402524 589.726454 C 174.315024 589.823486 174.246968 589.891408 174.266413 589.891408 C 174.276135 589.891408 174.363635 589.823486 174.451135 589.726454 Z M 175.355302 588.697915 C 176.30808 587.620861 177.640024 586.136271 178.242802 585.476454 C 179.176135 584.457618 180.556691 582.963326 180.926135 582.575198 C 182.112246 581.333189 182.501135 580.925655 183.463635 579.945632 C 184.299746 579.091751 184.35808 579.023828 183.735857 579.63513 C 181.99558 581.333189 178.349746 585.253281 175.637246 588.329194 C 175.219191 588.80465 174.801135 589.270404 174.723357 589.348029 C 174.64558 589.435358 174.587246 589.512984 174.606691 589.512984 C 174.626135 589.512984 174.956691 589.144262 175.355302 588.697915 Z M 185.855302 577.539239 L 186.798358 576.588326 L 185.835858 577.529536 C 184.951135 578.402824 184.863635 578.499856 184.902524 578.499856 C 184.902524 578.499856 185.330302 578.063212 185.855302 577.539239 Z M 187.371969 576.08376 C 187.585858 575.87029 187.751135 575.695632 187.731691 575.695632 C 187.721969 575.695632 187.537246 575.87029 187.323358 576.08376 C 187.109469 576.29723 186.953913 576.471888 186.963635 576.471888 C 186.98308 576.471888 187.15808 576.29723 187.371969 576.08376 Z M 188.217802 575.288098 C 188.363635 575.132847 188.47058 575.016408 188.460858 575.016408 C 188.441413 575.016408 188.315024 575.132847 188.169191 575.288098 C 188.023358 575.433646 187.916413 575.550084 187.935858 575.550084 C 187.94558 575.550084 188.071969 575.433646 188.217802 575.288098 Z M 188.82058 574.725312 C 188.927524 574.618577 189.005302 574.531248 188.985858 574.531248 C 188.976135 574.531248 188.878913 574.618577 188.771969 574.725312 C 188.674746 574.832048 188.596969 574.919376 188.606691 574.919376 C 188.626135 574.919376 188.723358 574.832048 188.82058 574.725312 Z M 189.355302 574.230449 L 189.501135 574.075198 L 189.34558 574.220746 C 189.25808 574.298372 189.180302 574.366294 189.180302 574.375997 C 189.180302 574.41481 189.228913 574.375997 189.355302 574.230449 Z M 189.860858 573.784102 C 189.919191 573.71618 189.967802 573.667664 189.948358 573.667664 C 189.938635 573.667664 189.87058 573.71618 189.812246 573.784102 C 189.753913 573.852025 189.715024 573.910244 189.724746 573.910244 C 189.734469 573.910244 189.802524 573.852025 189.860858 573.784102 Z M 190.278913 573.415381 L 190.415024 573.250427 L 190.259469 573.395974 C 190.171969 573.4736 190.103913 573.541522 190.103913 573.551226 C 190.103913 573.590038 190.142802 573.560929 190.278913 573.415381 Z M 190.65808 573.085472 C 190.706691 573.036956 190.735858 572.98844 190.726135 572.98844 C 190.706691 572.98844 190.65808 573.036956 190.609469 573.085472 C 190.560858 573.143691 190.531691 573.182504 190.551135 573.182504 C 190.560858 573.182504 190.609469 573.143691 190.65808 573.085472 Z M 191.066413 572.726454 C 191.134469 572.658532 191.173358 572.600312 191.153913 572.600312 C 191.144191 572.600312 191.085858 572.658532 191.017802 572.726454 C 190.959469 572.794376 190.92058 572.842892 190.930302 572.842892 C 190.940024 572.842892 191.00808 572.794376 191.066413 572.726454 Z M 191.387246 572.454764 C 191.426135 572.406248 191.455302 572.357732 191.44558 572.357732 C 191.435858 572.357732 191.387246 572.406248 191.338635 572.454764 C 191.290024 572.512984 191.260858 572.551796 191.27058 572.551796 C 191.280302 572.551796 191.338635 572.512984 191.387246 572.454764 Z M 191.698358 572.183075 C 191.766413 572.105449 191.756691 572.105449 191.688635 572.163669 C 191.640024 572.202481 191.601135 572.231591 191.601135 572.250997 C 191.601135 572.28981 191.640024 572.2607 191.698358 572.183075 Z M 192.009469 571.930792 C 192.05808 571.872573 192.087246 571.83376 192.077524 571.83376 C 192.05808 571.83376 192.009469 571.872573 191.960858 571.930792 C 191.912246 571.979308 191.88308 572.027824 191.902524 572.027824 C 191.912246 572.027824 191.960858 571.979308 192.009469 571.930792 Z M 192.301135 571.688212 C 192.349746 571.629993 192.378913 571.59118 192.359469 571.59118 C 192.349746 571.59118 192.301135 571.629993 192.252524 571.688212 C 192.203913 571.736728 192.174746 571.785244 192.184469 571.785244 C 192.203913 571.785244 192.252524 571.736728 192.301135 571.688212 Z M 194.216413 570.155107 C 194.274747 570.077481 194.274747 570.077481 194.196969 570.1357 C 194.119191 570.19392 194.090024 570.232732 194.128913 570.232732 C 194.138635 570.232732 194.177524 570.19392 194.216413 570.155107 Z M 197.492802 567.845746 C 197.492802 567.82634 197.453913 567.836043 197.39558 567.865152 C 197.346969 567.894262 197.298358 567.933075 197.298358 567.942778 C 197.298358 567.962184 197.346969 567.942778 197.39558 567.913668 C 197.453913 567.884559 197.492802 567.855449 197.492802 567.845746 Z M 198.27058 567.360586 C 198.27058 567.34118 198.221969 567.360586 198.173358 567.389696 C 198.115024 567.418805 198.076135 567.447915 198.076135 567.457618 C 198.076135 567.477025 198.115024 567.467321 198.173358 567.438212 C 198.221969 567.409102 198.27058 567.370289 198.27058 567.360586 Z M 198.601135 567.166522 C 198.601135 567.147116 198.562247 567.166522 198.503913 567.195632 C 198.455302 567.224742 198.406691 567.253851 198.406691 567.273258 C 198.406691 567.282961 198.455302 567.273258 198.503913 567.244148 C 198.562247 567.215038 198.601135 567.176226 198.601135 567.166522 Z M 207.623358 567.137413 C 207.603913 567.0986 207.594191 567.108303 207.594191 567.166522 C 207.594191 567.215038 207.603913 567.244148 207.613636 567.224742 C 207.63308 567.215038 207.63308 567.166522 207.623358 567.137413 Z M 198.844191 567.020974 C 198.844191 567.011271 198.805302 567.020974 198.746969 567.050084 C 198.698358 567.079194 198.649747 567.108303 198.649747 567.12771 C 198.649747 567.137413 198.698358 567.12771 198.746969 567.0986 C 198.805302 567.06949 198.844191 567.030678 198.844191 567.020974 Z M 207.671969 566.768691 C 207.662247 566.720175 207.652524 566.758988 207.652524 566.85602 C 207.652524 566.943349 207.662247 566.982162 207.671969 566.943349 C 207.681691 566.894833 207.681691 566.817207 207.671969 566.768691 Z M 199.378913 566.729879 C 199.378913 566.720175 199.291413 566.749285 199.184469 566.807504 C 199.077524 566.85602 198.990024 566.914239 198.990024 566.933646 C 198.990024 566.943349 199.077524 566.904536 199.184469 566.85602 C 199.291413 566.797801 199.378913 566.749285 199.378913 566.729879 Z M 200.419191 566.1865 C 200.399747 566.167093 199.427524 566.652253 199.427524 566.681363 C 199.427524 566.700769 199.651135 566.594034 199.93308 566.458189 C 200.205302 566.322344 200.428913 566.196203 200.419191 566.1865 Z M 207.671969 566.1865 C 207.662247 566.147687 207.652524 566.1865 207.652524 566.273828 C 207.652524 566.37086 207.662247 566.409673 207.671969 566.361157 C 207.681691 566.312641 207.681691 566.235015 207.671969 566.1865 Z M 201.177524 565.895404 C 201.459469 565.769262 201.68308 565.67223 201.673358 565.662527 C 201.653913 565.633417 200.584469 566.079764 200.584469 566.118577 C 200.584469 566.12828 200.603913 566.12828 200.623358 566.118577 C 200.642802 566.108874 200.89558 566.011842 201.177524 565.895404 Z M 207.584469 565.895404 C 207.584469 565.875997 207.555302 565.817778 207.516413 565.759559 C 207.448358 565.681933 207.448358 565.681933 207.496969 565.808075 C 207.555302 565.934216 207.584469 565.973029 207.584469 565.895404 Z M 202.344191 565.45876 C 202.665024 565.352025 202.898358 565.264696 202.869191 565.264696 C 202.791413 565.254993 201.741413 565.594605 201.741413 565.623714 C 201.741413 565.652824 201.702524 565.662527 202.344191 565.45876 Z M 203.08308 565.235586 C 203.063635 565.21618 203.024747 565.21618 202.99558 565.225883 C 202.956691 565.245289 202.966413 565.254993 203.024747 565.254993 C 203.073358 565.254993 203.102524 565.245289 203.08308 565.225883 Z M 203.277524 565.18707 C 203.25808 565.167664 203.219191 565.167664 203.180302 565.177367 C 203.141413 565.196773 203.160858 565.206477 203.209469 565.206477 C 203.267802 565.206477 203.296969 565.196773 203.277524 565.18707 Z M 203.744191 565.090038 C 203.909469 565.060929 203.987247 565.031819 203.919191 565.031819 C 203.78308 565.031819 203.277524 565.148257 203.384469 565.157961 C 203.423358 565.157961 203.588636 565.128851 203.744191 565.090038 Z M 204.288636 564.983303 C 204.249747 564.9736 204.171969 564.9736 204.123358 564.983303 C 204.074747 564.993006 204.113636 565.00271 204.210858 565.00271 C 204.298358 565.00271 204.337247 564.993006 204.288636 564.983303 Z M 204.677524 564.934787 C 204.628913 564.925084 204.541413 564.925084 204.48308 564.934787 C 204.424747 564.94449 204.463636 564.954194 204.57058 564.954194 C 204.677524 564.954194 204.726136 564.94449 204.677524 564.934787 Z M 205.552524 564.886271 C 205.426136 564.876568 205.212247 564.876568 205.085858 564.886271 C 204.959469 564.895974 205.066413 564.905678 205.319191 564.905678 C 205.571969 564.905678 205.678913 564.895974 205.552524 564.886271 Z M 205.552524 564.886271 " transform="matrix(0.401786,0,0,0.402574,-6.959161,-89.693413)"/>
<path style="fill-rule:nonzero;fill:rgb(100%,43.921569%,54.117647%);fill-opacity:1;stroke-width:0.00693761;stroke-linecap:butt;stroke-linejoin:miter;stroke:rgb(95.294118%,54.509804%,65.882353%);stroke-opacity:1;stroke-miterlimit:4;" d="M 137.740024 641.570633 L 137.740024 641.027254 L 138.352524 640.37714 C 145.196968 633.080336 151.390024 626.753852 164.991413 613.169377 L 173.440024 604.727596 L 173.440024 605.804651 L 163.863635 615.401112 C 154.948357 624.31835 152.11919 627.180793 147.909468 631.508418 C 144.76919 634.739583 141.920579 637.708761 139.217801 640.580907 C 138.430301 641.425085 137.76919 642.114012 137.759468 642.114012 C 137.749746 642.114012 137.740024 641.871432 137.740024 641.570633 Z M 137.740024 641.570633 " transform="matrix(0.401786,0,0,0.402574,-6.959161,-89.693413)"/>
<path style="fill-rule:nonzero;fill:rgb(100%,43.921569%,54.117647%);fill-opacity:1;stroke-width:0.00693761;stroke-linecap:butt;stroke-linejoin:miter;stroke:rgb(95.294118%,54.509804%,65.882353%);stroke-opacity:1;stroke-miterlimit:4;" d="M 137.740024 632.905678 L 137.740024 632.216751 L 138.459468 631.382277 C 151.749746 615.847459 154.666413 612.45134 154.685857 612.499856 C 154.695579 612.528966 154.676135 612.596888 154.637246 612.635701 C 154.598357 612.684217 151.370579 616.449057 147.471968 620.999856 C 143.573357 625.560359 140.326135 629.354309 140.258079 629.431934 L 140.13169 629.577482 L 140.258079 629.461044 C 140.335857 629.393121 141.084468 628.529537 141.930301 627.549514 C 146.626135 622.067208 154.355302 613.082048 154.510857 612.917094 L 154.695579 612.72303 L 154.695579 613.87771 L 153.110857 615.721317 C 152.245579 616.73045 151.020579 618.15682 150.388635 618.88456 C 147.578913 622.154537 147.034468 622.785245 145.498357 624.580336 C 144.59419 625.628281 143.466413 626.947916 142.980301 627.500998 C 141.96919 628.684788 139.742801 631.275541 138.663635 632.527254 C 138.255301 633.00271 137.876135 633.439354 137.827524 633.48787 C 137.740024 633.584902 137.740024 633.565496 137.740024 632.905678 Z M 138.615024 631.401683 C 138.673357 631.324057 138.673357 631.324057 138.595579 631.382277 C 138.546968 631.421089 138.517801 631.459902 138.517801 631.469605 C 138.517801 631.508418 138.55669 631.479309 138.615024 631.401683 Z M 138.858079 631.110587 C 138.916412 631.032962 138.916412 631.032962 138.838635 631.091181 C 138.790024 631.129993 138.751135 631.168806 138.751135 631.178509 C 138.751135 631.217322 138.790024 631.188213 138.858079 631.110587 Z M 139.16919 630.761272 C 139.217801 630.712756 139.246968 630.66424 139.227524 630.66424 C 139.217801 630.66424 139.16919 630.712756 139.120579 630.761272 C 139.071968 630.819491 139.042801 630.858304 139.052524 630.858304 C 139.071968 630.858304 139.120579 630.819491 139.16919 630.761272 Z M 139.43169 630.45077 C 139.490024 630.382847 139.538635 630.324628 139.51919 630.324628 C 139.509468 630.324628 139.441412 630.382847 139.383079 630.45077 C 139.324746 630.518692 139.276135 630.567208 139.295579 630.567208 C 139.305301 630.567208 139.373357 630.518692 139.43169 630.45077 Z M 139.752524 630.072345 L 139.888635 629.917094 L 139.733079 630.062642 C 139.587246 630.188783 139.558079 630.227596 139.587246 630.227596 C 139.596968 630.227596 139.674746 630.159674 139.752524 630.072345 Z M 140.034468 629.732733 L 140.180301 629.577482 L 140.024746 629.72303 C 139.878912 629.849172 139.840024 629.887984 139.878912 629.887984 C 139.888635 629.887984 139.95669 629.820062 140.034468 629.732733 Z M 140.034468 629.732733 " transform="matrix(0.401786,0,0,0.402574,-6.959161,-89.693413)"/>
<path style=" stroke:none;fill-rule:nonzero;fill:rgb(100%,43.921569%,54.117647%);fill-opacity:1;" d="M 107.027344 190.566406 C 106.96875 188.640625 122.710938 169.457031 130.605469 161.832031 C 145.515625 147.429688 169.851562 132.410156 193.179688 123.210938 C 204.476562 118.757812 221.792969 114.355469 243.636719 110.390625 C 254.054688 108.496094 265.476562 106.410156 269.019531 105.753906 C 282.796875 103.191406 289.21875 97.285156 288.144531 88.15625 C 287.953125 86.546875 287.332031 84.308594 286.761719 83.175781 C 283.421875 76.5625 278.1875 74.703125 266.277344 75.914062 C 262.4375 76.304688 258.578125 76.441406 257.695312 76.21875 C 255.378906 75.636719 254.628906 73.871094 255.433594 70.878906 C 257.054688 64.839844 268.265625 51.554688 275.875 46.65625 C 281.351562 43.128906 282.578125 43.433594 277.734375 47.117188 C 272.335938 51.21875 268.675781 55.34375 266.8125 59.417969 C 264.132812 65.285156 265.988281 67.882812 271.792969 66.398438 C 275.691406 65.398438 287.070312 65.40625 290.636719 66.414062 C 292.449219 66.921875 294.070312 68.082031 296.03125 70.265625 C 300.605469 75.367188 301.101562 81.140625 297.597656 88.609375 C 294.832031 94.5 282.996094 105.234375 274.554688 109.503906 C 267.328125 113.160156 254.105469 116.464844 231.21875 120.339844 C 203.050781 125.105469 193.027344 128.167969 172.539062 138.265625 C 152.742188 148.019531 141.671875 154.972656 130.925781 164.390625 C 124.578125 169.953125 116.359375 178.785156 112.074219 184.640625 C 107.871094 190.382812 107.050781 191.347656 107.027344 190.566406 Z M 107.027344 190.566406 "/>
<path style="fill-rule:nonzero;fill:rgb(100%,43.921569%,54.117647%);fill-opacity:1;stroke-width:0.00693761;stroke-linecap:butt;stroke-linejoin:miter;stroke:rgb(95.294118%,54.509804%,65.882353%);stroke-opacity:1;stroke-miterlimit:4;" d="M 611.708085 508.821202 L 611.708085 499.379992 L 611.81503 499.360585 C 611.941418 499.331476 614.887252 498.76869 617.716419 498.244718 C 618.785863 498.040951 623.316419 497.216179 627.788641 496.401111 C 643.120585 493.616293 657.713641 490.96732 661.826141 490.210471 C 664.081697 489.802937 667.474752 489.181932 669.360864 488.84232 C 671.246975 488.493005 672.851141 488.201909 672.919197 488.182503 L 673.055308 488.163097 L 673.055308 504.813782 L 672.316419 505.017549 C 658.131697 508.986156 641.720585 512.663668 620.108085 516.73901 C 616.608085 517.398828 611.883085 518.262412 611.785863 518.262412 C 611.708085 518.262412 611.708085 517.583188 611.708085 508.821202 Z M 611.708085 508.821202 " transform="matrix(0.401786,0,0,0.402574,-6.959161,-89.693413)"/>
<path style=" stroke:none;fill-rule:nonzero;fill:rgb(100%,43.921569%,54.117647%);fill-opacity:1;" d="M 40.085938 217.398438 C 40.085938 217.210938 40.316406 216.609375 40.597656 216.0625 C 41.253906 214.785156 45.898438 207.734375 47.640625 205.371094 C 60.753906 187.589844 65.359375 181.167969 73.828125 168.863281 C 77.066406 164.15625 80.207031 159.605469 80.808594 158.75 C 81.410156 157.894531 82.578125 156.214844 83.40625 155.015625 C 92.460938 141.941406 102.148438 129.164062 109.46875 120.636719 C 117.308594 111.507812 130.945312 98.855469 132.949219 98.855469 C 134.921875 98.855469 133.625 106.167969 130.421875 113.113281 C 129.753906 114.5625 129.207031 115.855469 129.207031 115.992188 C 129.207031 116.320312 130.117188 117.214844 130.453125 117.214844 C 130.941406 117.214844 135.410156 112.484375 141.769531 105.234375 C 151.457031 94.191406 158.316406 87.910156 163.738281 85.113281 C 166.917969 83.472656 172.796875 82.054688 176.429688 82.054688 C 183.890625 82.054688 188.882812 86.027344 188.882812 91.964844 C 188.882812 94.566406 188.464844 96.179688 187.054688 99.003906 C 183.871094 105.378906 178.71875 110.648438 168.515625 117.96875 C 164.84375 120.601562 160.261719 123.007812 160.261719 122.304688 C 160.261719 122.039062 162.054688 120.625 166.289062 117.546875 C 172.160156 113.273438 174.171875 111.617188 176.546875 109.097656 C 181.1875 104.167969 181.710938 99.761719 178.066406 96.339844 C 175.167969 93.617188 173.34375 92.90625 169.339844 92.921875 C 164.585938 92.941406 160.925781 94.007812 156.347656 96.710938 C 148.945312 101.082031 142.863281 106.816406 134.273438 117.523438 C 126.988281 126.605469 120.464844 133.019531 119.730469 131.828125 C 119.496094 131.445312 119.835938 129.761719 120.320312 128.910156 C 120.511719 128.574219 121.382812 127.28125 122.253906 126.039062 C 126.925781 119.382812 128.429688 112.527344 125.488281 111.304688 C 123.53125 110.492188 120.339844 112.769531 113.207031 120.0625 C 104.636719 128.828125 97.5 138.300781 80.765625 163.117188 C 79.3125 165.269531 77.28125 168.25 76.246094 169.738281 C 75.210938 171.222656 71.722656 176.292969 68.492188 180.996094 C 61.984375 190.484375 55.878906 199.054688 52.085938 204.019531 C 48.054688 209.304688 45.347656 212.785156 44.035156 214.378906 C 42.734375 215.953125 40.085938 217.980469 40.085938 217.398438 Z M 40.085938 217.398438 "/>
<path style="fill-rule:nonzero;fill:rgb(100%,80.392157%,51.372549%);fill-opacity:1;stroke-width:7.93701;stroke-linecap:butt;stroke-linejoin:miter;stroke:rgb(100%,80.392157%,51.372549%);stroke-opacity:1;stroke-miterlimit:4;" d="M 117.498357 762.365726 C 117.498357 760.279538 130.108079 741.212757 143.378913 723.193922 C 169.084468 688.31093 180.702524 672.067779 204.13308 638.242436 C 246.181692 577.519833 266.55947 550.020974 288.34697 524.579193 C 308.578915 500.942206 343.209471 468.572343 348.255304 468.572343 C 349.567804 468.572343 350.112248 470.086042 350.112248 473.75385 C 350.112248 480.808074 347.351137 490.637412 341.692804 503.688211 L 338.455304 511.169376 L 339.826137 512.605449 C 340.584471 513.391408 341.556693 514.041522 342.003915 514.041522 C 343.073359 514.041522 353.806693 502.950768 366.095582 489.14312 C 398.665027 452.532959 413.977527 438.822343 429.280305 432.554078 C 433.888638 430.661954 444.096972 428.100311 449.842805 427.382274 C 467.410861 425.199055 481.605306 431.583758 485.844195 443.576909 C 487.244195 447.545516 487.428917 455.036384 486.242806 459.606589 C 484.765028 465.331475 480.001139 474.287526 474.605306 481.497001 C 464.659472 494.780677 438.351138 516.302366 421.988638 524.530677 C 417.253916 526.90796 415.640027 527.111727 418.080305 525.02554 C 418.994194 524.229878 424.166416 520.329193 429.562249 516.341179 C 447.801139 502.863439 452.623361 498.846316 458.009472 492.63627 C 464.153917 485.53353 466.516417 480.458759 466.496972 474.433074 C 466.477528 469.833759 465.028917 466.660813 461.06225 462.527252 C 457.183083 458.490722 453.245583 455.899968 449.006694 454.580334 C 446.158083 453.697343 444.495583 453.532389 438.895583 453.551795 C 427.899749 453.580904 421.065027 455.269261 410.856694 460.470174 C 391.665027 470.260699 375.516415 484.912526 351.56086 514.284102 C 335.830304 533.564353 322.608081 547.391408 317.65947 549.739581 C 315.326137 550.845746 314.927526 550.185929 315.831692 546.683075 C 316.385859 544.519262 317.795581 541.957618 321.451137 536.455906 C 329.588637 524.220175 333.360859 514.963325 333.360859 507.258987 C 333.360859 503.086613 332.738637 501.349741 330.677526 499.719604 C 326.58447 496.507846 319.535859 500.68022 304.942803 514.973029 C 280.744192 538.668234 265.723359 558.045518 223.246969 620.349742 C 180.68308 682.799515 159.070579 713.471319 142.299746 735.254995 C 127.79419 754.098602 125.353912 757.019264 121.542801 760.046662 C 117.663634 763.132278 117.498357 763.219607 117.498357 762.365726 Z M 117.498357 762.365726 " transform="matrix(0.401786,0,0,0.402574,-6.959161,-89.693413)"/>
<path style="fill-rule:nonzero;fill:rgb(79.215686%,100%,55.686275%);fill-opacity:1;stroke-width:7.59766;stroke-linecap:butt;stroke-linejoin:miter;stroke:rgb(79.215686%,100%,55.686275%);stroke-opacity:1;stroke-miterlimit:4;" d="M 502.595584 499.73901 C 502.148361 499.030677 509.196973 489.240152 511.598362 487.241293 C 513.309473 485.814923 527.115028 468.853736 529.778917 464.914238 C 534.066417 458.568347 538.97614 447.584329 540.259473 441.481018 C 541.980306 433.262411 541.591418 422.947913 539.335862 416.902822 C 533.191417 400.485013 518.792806 397.486726 500.155306 408.742434 C 489.84975 414.971886 488.634472 413.399968 497.28725 405.006703 C 517.412251 385.474168 538.684473 374.111725 552.441418 375.528392 C 559.53864 376.256132 562.77614 378.274397 565.391418 383.591748 C 567.452529 387.764123 567.646973 389.36515 567.608085 402.047228 C 567.569196 418.90168 565.83864 426.082046 558.070584 441.772114 C 551.508084 455.016978 542.855306 466.592891 529.380306 480.119147 C 512.278917 497.284101 504.569195 502.941065 502.595584 499.73901 Z M 502.595584 499.73901 " transform="matrix(0.401786,0,0,0.402574,-6.959161,-89.693413)"/>
<path style="fill-rule:nonzero;fill:rgb(100%,80.392157%,51.372549%);fill-opacity:1;stroke-width:7.93701;stroke-linecap:butt;stroke-linejoin:miter;stroke:rgb(78.431373%,66.27451%,100%);stroke-opacity:1;stroke-miterlimit:4;" d="M 109.496968 672.145405 C 109.496968 671.165382 117.848357 658.997574 124.216412 650.711044 C 129.116412 644.316637 166.352524 600.681363 178.93308 586.572915 C 190.327524 573.793806 203.715024 563.886842 206.213636 566.380563 C 207.973358 568.146545 197.162247 580.129993 156.902524 620.999856 C 131.090023 647.198487 125.178912 653.738441 117.858079 664.149971 C 113.055301 670.971318 109.496968 674.37714 109.496968 672.145405 Z M 109.496968 672.145405 " transform="matrix(0.401786,0,0,0.402574,-6.959161,-89.693413)"/>
<path style="fill-rule:nonzero;fill:rgb(100%,80.392157%,51.372549%);fill-opacity:1;stroke-width:7.93701;stroke-linecap:butt;stroke-linejoin:miter;stroke:rgb(100%,80.392157%,51.372549%);stroke-opacity:1;stroke-miterlimit:4;" d="M 107.163634 675.337757 C 104.60669 672.76641 109.380301 664.130565 122.592801 647.431364 C 129.165023 639.115724 172.156691 588.911386 179.652524 580.78981 C 189.52058 570.096888 199.806691 563.003851 205.44558 563.003851 C 207.856691 563.003851 208.59558 563.51812 209.110858 565.575198 C 210.374747 570.62086 208.780302 572.493577 163.212246 619.495861 C 145.624746 637.650542 128.290023 656.329195 124.692801 660.996432 C 121.095579 665.673373 116.798357 670.961615 115.126134 672.747003 C 112.335857 675.754994 108.758079 676.919378 107.163634 675.337757 Z M 190.502524 580.586043 C 190.502524 579.295518 184.134469 585.457048 180.24558 590.50271 C 177.980302 593.433075 178.93308 592.782961 183.83308 588.028395 C 187.498358 584.467322 190.502524 581.119719 190.502524 580.586043 Z M 190.502524 580.586043 " transform="matrix(0.401786,0,0,0.402574,-6.959161,-89.693413)"/>
<path style=" stroke:none;fill-rule:nonzero;fill:rgb(100%,80.392157%,51.372549%);fill-opacity:1;" d="M 127.378906 110.664062 C 126.496094 109.613281 126.03125 109.398438 124.621094 109.398438 L 122.921875 109.398438 L 124.898438 107.578125 C 128.753906 104.027344 131.480469 101.820312 131.71875 102.058594 C 132.199219 102.542969 129.253906 112.054688 128.652344 111.964844 C 128.535156 111.945312 127.964844 111.363281 127.378906 110.664062 Z M 127.378906 110.664062 "/>
<path style=" stroke:none;fill-rule:nonzero;fill:rgb(100%,80.392157%,51.372549%);fill-opacity:1;" d="M 182.089844 101.160156 C 182.082031 99.5625 181.808594 98.515625 181.054688 97.230469 C 179.714844 94.933594 176.519531 92.441406 173.945312 91.671875 C 169.429688 90.328125 163.105469 91.222656 157.621094 93.976562 C 153.117188 96.234375 153.132812 96.234375 154.757812 94.484375 C 156.96875 92.109375 161.875 88.3125 164.375 87.050781 C 171.203125 83.597656 179.121094 83.097656 183.449219 85.847656 C 187.960938 88.710938 188.074219 94 183.773438 100.722656 L 182.097656 103.339844 Z M 182.089844 101.160156 "/>
<path style="fill-rule:nonzero;fill:rgb(79.215686%,100%,55.686275%);fill-opacity:1;stroke-width:7.93701;stroke-linecap:butt;stroke-linejoin:miter;stroke:rgb(79.215686%,100%,55.686275%);stroke-opacity:1;stroke-miterlimit:4;" d="M 104.703912 677.802368 C 102.915023 676.01698 103.245579 670.418236 105.39419 666.207049 C 108.126134 660.860587 117.488634 648.042665 126.316412 637.563213 C 149.31919 610.258418 176.026135 579.693349 181.840024 573.997573 C 197.794191 558.38513 212.503913 555.134559 212.503913 567.224742 C 212.503913 572.445061 208.33308 577.471317 176.638635 610.500998 C 142.426135 646.150542 134.317801 654.902825 125.295579 665.886843 C 121.416412 670.622003 117.051134 675.512414 115.612246 676.74472 C 112.734468 679.219035 106.70669 679.801227 104.703912 677.802368 Z M 104.703912 677.802368 " transform="matrix(0.401786,0,0,0.402574,-6.959161,-89.693413)"/>
<path style="fill-rule:nonzero;fill:rgb(53.72549%,70.588235%,98.039216%);fill-opacity:1;stroke-width:11.2246;stroke-linecap:butt;stroke-linejoin:miter;stroke:rgb(53.72549%,70.588235%,98.039216%);stroke-opacity:1;stroke-miterlimit:4;" d="M 586.371974 456.957617 C 578.555307 449.660813 577.359474 441.219032 581.365029 421.72531 C 584.058085 408.606589 588.792807 399.340036 601.421974 382.50499 C 611.620585 368.910812 635.226141 344.128848 636.635863 345.545515 C 637.10253 346.011268 634.010863 350.717319 629.762252 355.986154 C 609.928918 380.574054 604.562252 391.393118 603.609474 408.703621 C 602.753918 424.15111 606.069196 431.7099 615.84003 436.639123 C 623.598363 440.549512 629.237252 440.646544 638.774752 437.027251 C 642.819197 435.484443 646.367808 434.465607 646.649752 434.756703 C 647.796974 435.901681 625.951141 451.727594 616.996974 456.23958 C 609.374752 460.072343 605.806696 461.032959 599.108085 461.032959 C 591.82614 461.032959 590.16364 460.499284 586.371974 456.957617 Z M 586.371974 456.957617 " transform="matrix(0.401786,0,0,0.402574,-6.959161,-89.693413)"/>
<path style="fill-rule:nonzero;fill:rgb(78.431373%,66.27451%,100%);fill-opacity:1;stroke-width:3.02362;stroke-linecap:butt;stroke-linejoin:miter;stroke:rgb(78.431373%,66.27451%,100%);stroke-opacity:1;stroke-miterlimit:4;" d="M 498.638639 504.93022 C 493.641417 501.000426 495.36225 497.099741 510.548362 478.081476 C 529.117806 454.822914 532.860862 447.535813 533.72614 433.000425 C 533.90114 421.327479 530.66364 408.150539 519.123362 409.21789 C 516.576139 409.46047 510.227528 411.604877 504.996973 413.972456 C 493.495584 419.183073 489.58725 419.580904 486.758084 415.83547 C 485.290028 413.894831 484.920583 412.410242 485.426139 410.333758 C 497.365028 390.694488 543.224751 358.363438 562.212251 370.385698 C 581.287251 382.475881 572.585862 419.84289 565.83864 436.328621 C 559.266418 452.406818 550.341418 467.728165 531.528917 486.542663 C 511.540028 506.540951 505.201139 510.092321 498.638639 504.93022 Z M 498.638639 504.93022 " transform="matrix(0.401786,0,0,0.402574,-6.959161,-89.693413)"/>
</g>
</svg>
